<svg xmlns="http://www.w3.org/2000/svg" viewBox="0 0 24 24" role="img" aria-label="settings"><g fill="none" stroke="#111827" stroke-width="1.7" stroke-linecap="round" stroke-linejoin="round">
<path d="M12 8.5a3.5 3.5 0 1 0 0 7 3.5 3.5 0 0 0 0-7Z"/>
<path d="M4 12c0-.6.05-1.2.15-1.8l-1.7-1.3 2-3.4 2 .5a8.05 8.05 0 0 1 3-1.8l.4-2.1h4l.4 2.1a8.05 8.05 0 0 1 3 1.8l2-.5 2 3.4-1.7 1.3c.1.6.15 1.2.15 1.8s-.05 1.2-.15 1.8l1.7 1.3-2 3.4-2-.5a8.05 8.05 0 0 1-3 1.8l-.4 2.1h-4l-.4-2.1a8.05 8.05 0 0 1-3-1.8l-2 .5-2-3.4 1.7-1.3c-.1-.6-.15-1.2-.15-1.8Z"/>
</g></svg>
