<?xml version="1.0" encoding="UTF-8"?>
<svg xmlns="http://www.w3.org/2000/svg" viewBox="0 0 24 24" width="24" height="24" role="img">
  <defs>
    <linearGradient id="coinDark" x1="15%" y1="0%" x2="85%" y2="100%">
      <stop offset="0%" stop-color="#e8e8e8"/>
      <stop offset="45%" stop-color="#c0c0c0"/>
      <stop offset="100%" stop-color="#8a8a8a"/>
    </linearGradient>
  </defs>
  <rect width="24" height="24" rx="4" fill="#0d0c0b"/>
  <!-- Silver drachma coin -->
  <circle cx="12" cy="12" r="10.5" fill="#2a2a2a" stroke="#CD7F32" stroke-width="1"/>
  <circle cx="12" cy="12" r="9" fill="url(#coinDark)" stroke="#a0a0a0" stroke-width="0.8"/>
  <!-- Athena's Owl - Symbol of ancient Greek drachma -->
  <g transform="translate(12, 10)">
    <ellipse cx="0" cy="0" rx="2.5" ry="2.8" fill="#4a4a4a"/>
    <circle cx="-0.9" cy="-0.7" r="0.7" fill="#2a2a2a"/>
    <circle cx="0.9" cy="-0.7" r="0.7" fill="#2a2a2a"/>
    <circle cx="-0.9" cy="-0.7" r="0.35" fill="#e8e8e8"/>
    <circle cx="0.9" cy="-0.7" r="0.35" fill="#e8e8e8"/>
    <path d="M -0.25 0.2 L 0 0.7 L 0.25 0.2 Z" fill="#3a3a3a"/>
    <path d="M -2.5 0.3 Q -3 1.2 -2.5 2.2" stroke="#3a3a3a" stroke-width="0.5" fill="none"/>
    <path d="M 2.5 0.3 Q 3 1.2 2.5 2.2" stroke="#3a3a3a" stroke-width="0.5" fill="none"/>
  </g>
  <!-- Olive branch -->
  <path d="M 17 15.5 Q 17.5 16 18 16.5 M 17.2 16.2 L 17.5 15.7 M 17.5 16.5 L 17.8 16" stroke="#5a5a5a" stroke-width="0.4" fill="none" stroke-linecap="round"/>
  <text x="12" y="21.5" font-family="'Noto Sans', 'Segoe UI', sans-serif" font-size="2.6" text-anchor="middle" fill="#F5F5F0" font-weight="600">DRACHMA</text>
</svg>
