<svg xmlns="http://www.w3.org/2000/svg" viewBox="0 0 640 360" role="img" aria-label="Drachma splash">
  <defs>
    <linearGradient id="bg" x1="0%" y1="0%" x2="100%" y2="100%">
      <stop offset="0%" stop-color="#0c1226"/>
      <stop offset="100%" stop-color="#122d4a"/>
    </linearGradient>
    <linearGradient id="coin" x1="30%" y1="30%" x2="70%" y2="70%">
      <stop offset="0%" stop-color="#f6d365"/>
      <stop offset="100%" stop-color="#fda085"/>
    </linearGradient>
    <filter id="shadow" x="-20%" y="-20%" width="140%" height="140%">
      <feDropShadow dx="0" dy="8" stdDeviation="12" flood-color="#000" flood-opacity="0.25"/>
    </filter>
  </defs>
  <rect width="640" height="360" fill="url(#bg)" rx="18" ry="18"/>
  <g filter="url(#shadow)" transform="translate(0 -6)">
    <circle cx="320" cy="180" r="90" fill="url(#coin)"/>
    <circle cx="320" cy="180" r="70" fill="#fff" fill-opacity="0.1" stroke="#f1c152" stroke-width="4"/>
    <path d="M320 115c-18 0-32 14-32 32v12h-18v30h18v56h34c34 0 62-28 62-62 0-35-28-63-64-63z m0 30c18 0 32 14 32 33 0 17-13 31-30 32l-2 .06V189h-16v-30h16v-14z" fill="#35260f" fill-opacity="0.9"/>
  </g>
  <text x="320" y="300" font-family="'Segoe UI', 'Inter', Arial, sans-serif" font-size="32" text-anchor="middle" fill="#f6f8fb" letter-spacing="2">
    DRACHMA CORE
  </text>
</svg>
